<?xml version="1.0" encoding="iso-8859-1"?>
<!-- Generator: Adobe Illustrator 19.0.0, SVG Export Plug-In . SVG Version: 6.00 Build 0)  -->
<svg version="1.1" id="Capa_1" xmlns="http://www.w3.org/2000/svg" xmlns:xlink="http://www.w3.org/1999/xlink" x="0px" y="0px"
	 viewBox="0 0 480 480" style="enable-background:new 0 0 480 480;" xml:space="preserve">
<linearGradient id="SVGID_1_" gradientUnits="userSpaceOnUse" x1="-26.875" y1="563.743" x2="-26.875" y2="613.7421" gradientTransform="matrix(8 0 0 -8 455 4941.0005)">
	<stop  offset="0" style="stop-color:#006DF0"/>
	<stop  offset="1" style="stop-color:#00E7F0"/>
</linearGradient>
<path style="fill:url(#SVGID_1_);" d="M240,184c-53.019,0-96,42.981-96,96s42.981,96,96,96s96-42.981,96-96
	C335.943,227.004,292.996,184.057,240,184z M240,360c-44.183,0-80-35.817-80-80s35.817-80,80-80s80,35.817,80,80
	C319.952,324.163,284.163,359.952,240,360z"/>
<g>
	
		<linearGradient id="SVGID_2_" gradientUnits="userSpaceOnUse" x1="-23.375" y1="563.743" x2="-23.375" y2="613.7421" gradientTransform="matrix(8 0 0 -8 455 4941.0005)">
		<stop  offset="0" style="stop-color:#006DF0"/>
		<stop  offset="1" style="stop-color:#00E7F0"/>
	</linearGradient>
	<path style="fill:url(#SVGID_2_);" d="M240,216c-4.418,0-8,3.582-8,8s3.582,8,8,8c26.499,0.026,47.974,21.501,48,48
		c0,4.418,3.582,8,8,8s8-3.582,8-8C303.96,244.67,275.33,216.04,240,216z"/>
	
		<linearGradient id="SVGID_3_" gradientUnits="userSpaceOnUse" x1="-44.875" y1="563.743" x2="-44.875" y2="613.7421" gradientTransform="matrix(8 0 0 -8 455 4941.0005)">
		<stop  offset="0" style="stop-color:#006DF0"/>
		<stop  offset="1" style="stop-color:#00E7F0"/>
	</linearGradient>
	<path style="fill:url(#SVGID_3_);" d="M96,376c13.255,0,24-10.745,24-24s-10.745-24-24-24s-24,10.745-24,24S82.745,376,96,376z
		 M96,344c4.418,0,8,3.582,8,8s-3.582,8-8,8s-8-3.582-8-8S91.582,344,96,344z"/>
</g>
<linearGradient id="SVGID_4_" gradientUnits="userSpaceOnUse" x1="-26.875" y1="563.743" x2="-26.875" y2="613.7421" gradientTransform="matrix(8 0 0 -8 455 4941.0005)">
	<stop  offset="0" style="stop-color:#006DF0"/>
	<stop  offset="1" style="stop-color:#00E7F0"/>
</linearGradient>
<path style="fill:url(#SVGID_4_);" d="M456,96h-24V72h-80v24h-19.056L311.2,52.424c-1.362-2.725-4.153-4.441-7.2-4.424H176
	c-3.032-0.001-5.805,1.712-7.16,4.424L147.056,96H128V72h-16V56c0-4.418-3.582-8-8-8H72c-4.418,0-8,3.582-8,8v16H48v24H24
	c-13.255,0-24,10.745-24,24v288c0,13.255,10.745,24,24,24h432c13.255,0,24-10.745,24-24V120C480,106.745,469.255,96,456,96z M368,88
	h48v8h-48V88z M180.944,64h118.112l16,32H164.944L180.944,64z M80,64h16v8H80V64z M64,88h48v8H64V88z M16,120c0-4.418,3.582-8,8-8
	h432c4.418,0,8,3.582,8,8v8H16V120z M464,384H314.4c57.524-41.09,70.847-121.033,29.757-178.557S223.124,134.596,165.6,175.686
	s-70.847,121.033-29.757,178.557c8.209,11.493,18.264,21.547,29.757,29.757H16V144h448V384z M280,384v0.616
	c-25.768,9.792-54.232,9.792-80,0V384h-1.488c-57.456-22.911-85.461-88.062-62.55-145.518s88.062-85.461,145.518-62.55
	s85.461,88.062,62.55,145.518c-11.384,28.549-34.001,51.166-62.55,62.55H280z M456,416H24c-4.418,0-8-3.582-8-8v-8h179.6
	c28.639,10.668,60.161,10.668,88.8,0H464v8C464,412.418,460.418,416,456,416L456,416z"/>
<linearGradient id="SVGID_5_" gradientUnits="userSpaceOnUse" x1="-5.875" y1="563.743" x2="-5.875" y2="613.7421" gradientTransform="matrix(8 0 0 -8 455 4941.0005)">
	<stop  offset="0" style="stop-color:#006DF0"/>
	<stop  offset="1" style="stop-color:#00E7F0"/>
</linearGradient>
<path style="fill:url(#SVGID_5_);" d="M376,208h64c4.418,0,8-3.582,8-8v-32c0-4.418-3.582-8-8-8h-64c-4.418,0-8,3.582-8,8v32
	C368,204.418,371.582,208,376,208z M384,176h48v16h-48V176z"/>
<g>
</g>
<g>
</g>
<g>
</g>
<g>
</g>
<g>
</g>
<g>
</g>
<g>
</g>
<g>
</g>
<g>
</g>
<g>
</g>
<g>
</g>
<g>
</g>
<g>
</g>
<g>
</g>
<g>
</g>
</svg>
