<?xml version="1.0" encoding="iso-8859-1"?>
<!-- Generator: Adobe Illustrator 21.0.0, SVG Export Plug-In . SVG Version: 6.00 Build 0)  -->
<svg version="1.1" id="Capa_1" xmlns="http://www.w3.org/2000/svg" xmlns:xlink="http://www.w3.org/1999/xlink" x="0px" y="0px"
	 viewBox="0 0 512.001 512.001" style="enable-background:new 0 0 512.001 512.001;" xml:space="preserve">
<g>
	<g>
		<rect x="247.988" y="24.045" width="16.03" height="15.075"/>
	</g>
</g>
<g>
	<g>
		<path d="M415.822,392.732v-0.001V183.866h-15.075v126.071l-56.582-56.581l-64.12,64.119L245.3,282.73l-10.659,10.659l99.34,99.341
			H111.254v-45.445l88.641-88.641l18.715,18.715l10.659-10.659l-29.376-29.375l-88.641,88.641V87.209h289.492v72.612h15.075V72.134
			h-128.24V0h-63.165v31.583h15.075V15.075h33.015v57.059h-33.015V55.627h-15.075v16.507H96.179v320.597H64.12v47.135h56.104v72.134
			h47.135v-32.06h177.282v32.06h47.135v-72.134h56.104v-47.135H415.822z M290.706,328.135l53.46-53.46l56.582,56.582v61.474h-45.445
			L290.706,328.135z M152.284,496.925h-16.985v-57.059h16.985V496.925z M376.703,496.925h-16.985v-57.059h16.985V496.925z
			 M223.941,424.791v15.075h120.701v25H167.359v-25h32.537v-15.075H79.196v-16.985h353.611v16.985H223.941z"/>
	</g>
</g>
<g>
	<g>
		<path d="M280.045,128.239c-26.254,0-47.612,21.359-47.612,47.612s21.359,47.612,47.612,47.612s47.613-21.359,47.613-47.612
			S306.299,128.239,280.045,128.239z M280.045,208.388c-17.941,0-32.537-14.596-32.537-32.537s14.596-32.537,32.537-32.537
			c17.942,0,32.537,14.596,32.537,32.537S297.987,208.388,280.045,208.388z"/>
	</g>
</g>
<g>
	<g>
		<polygon points="128.239,104.194 128.239,191.881 143.314,191.881 143.314,119.269 167.837,119.269 167.837,104.194 		"/>
	</g>
</g>
<g>
	<g>
		<rect x="128.24" y="207.907" width="15.075" height="16.03"/>
	</g>
</g>
<g>
	<g>
		<rect x="128.24" y="239.967" width="15.075" height="16.03"/>
	</g>
</g>
<g>
	<g>
		<rect x="368.207" y="104.19" width="16.03" height="15.075"/>
	</g>
</g>
<g>
	<g>
		<rect x="336.147" y="104.19" width="16.029" height="15.075"/>
	</g>
</g>
<g>
</g>
<g>
</g>
<g>
</g>
<g>
</g>
<g>
</g>
<g>
</g>
<g>
</g>
<g>
</g>
<g>
</g>
<g>
</g>
<g>
</g>
<g>
</g>
<g>
</g>
<g>
</g>
<g>
</g>
</svg>
