<svg id="Capa_1" enable-background="new 0 0 512 512" height="512" viewBox="0 0 512 512" width="512" xmlns="http://www.w3.org/2000/svg" xmlns:xlink="http://www.w3.org/1999/xlink"><linearGradient id="SVGID_1_" gradientUnits="userSpaceOnUse" x1="75.142" x2="436.858" y1="436.858" y2="75.142"><stop offset="0" stop-color="#fd5900"/><stop offset="1" stop-color="#ffde00"/></linearGradient><g><g><path d="m256 0c-140.959 0-256 115.05-256 256 0 140.959 115.05 256 256 256 140.959 0 256-115.05 256-256 0-140.959-115.05-256-256-256zm222.668 217.277c-43.15-2.262-83.527-18.423-116.205-46.528l63.517-63.517c26.775 30.555 45.46 68.359 52.688 110.045zm-73.901-131.257-63.517 63.517c-28.104-32.679-44.266-73.063-46.528-116.205 41.688 7.228 79.492 25.914 110.045 52.688zm-148.767-56.02c2.873 0 5.729.072 8.577.179 1.653 51.084 20.616 100.916 55.422 140.609l-63.999 63.999-148.767-148.767c39.778-34.858 91.845-56.02 148.767-56.02zm-226 226c0-56.922 21.162-108.988 56.02-148.768l148.767 148.768-63.999 63.999c-38.305-33.589-87.64-53.695-140.609-55.419-.107-2.849-.179-5.706-.179-8.58zm3.332 38.725c43.139 2.265 83.525 18.423 116.204 46.526l-63.516 63.517c-26.774-30.554-45.46-68.357-52.688-110.043zm73.901 131.255 63.517-63.517c28.104 32.679 44.266 73.063 46.528 116.205-41.688-7.228-79.492-25.914-110.045-52.688zm148.767 56.02c-2.873 0-5.729-.072-8.577-.179-1.653-51.084-20.616-100.916-55.422-140.609l63.999-63.999 148.767 148.767c-39.778 34.858-91.845 56.02-148.767 56.02zm169.98-77.232-148.767-148.768 63.999-63.999c39.697 34.81 89.54 53.771 140.609 55.424.107 2.847.179 5.703.179 8.575 0 56.922-21.162 108.988-56.02 148.768z" fill="url(#SVGID_1_)"/></g></g></svg>